<svg height="512" viewBox="0 0 64 64" width="512" xmlns="http://www.w3.org/2000/svg">
    <g id="game_developing" data-name="game developing">
        <path d="m3 3v46h58v-46zm16 27h-8v-8h8zm30 0a4 4 0 1 1 4-4 4 4 0 0 1 -4 4z"
              fill="#4370ff"/>
        <path d="m55 26a6 6 0 1 0 -6 6 6.006 6.006 0 0 0 6-6zm-8 0a2 2 0 1 1 2 2 2 2 0 0 1 -2-2z"/>
        <path d="m9 28v4h12v-12h-12v4h8v4z"/>
        <path d="m34.586 20.586-2.586 2.586-2.586-2.586-2.828 2.828 2.586 2.586-2.586 2.586 2.828 2.828 2.586-2.586 2.586 2.586 2.828-2.828-2.586-2.586 2.586-2.586z"/>
        <path d="m38 51h25v-50h-62v50h29v8h-10v4h24v-4h-10v-12h-29v-42h54v42h-21z"/>
    </g>
</svg>